<svg width="109" height="105" viewBox="0 0 109 105" fill="none" xmlns="http://www.w3.org/2000/svg">
<circle cx="54.5" cy="52.5" r="52.5" fill="white"/>
<path d="M10.505 62.264C9.31698 62.264 8.20965 62.0733 7.18298 61.692C6.17098 61.296 5.29098 60.7387 4.54298 60.02C3.79498 59.3013 3.20832 58.458 2.78298 57.49C2.37232 56.522 2.16698 55.4587 2.16698 54.3C2.16698 53.1413 2.37232 52.078 2.78298 51.11C3.20832 50.142 3.79498 49.2987 4.54298 48.58C5.30565 47.8613 6.19298 47.3113 7.20498 46.93C8.21698 46.534 9.32432 46.336 10.527 46.336C11.8617 46.336 13.0643 46.5707 14.135 47.04C15.2203 47.4947 16.1296 48.1693 16.863 49.064L14.575 51.176C14.047 50.5747 13.4603 50.1273 12.815 49.834C12.1696 49.526 11.4657 49.372 10.703 49.372C9.98432 49.372 9.32432 49.4893 8.72298 49.724C8.12165 49.9587 7.60098 50.296 7.16098 50.736C6.72098 51.176 6.37632 51.6967 6.12698 52.298C5.89232 52.8993 5.77498 53.5667 5.77498 54.3C5.77498 55.0333 5.89232 55.7007 6.12698 56.302C6.37632 56.9033 6.72098 57.424 7.16098 57.864C7.60098 58.304 8.12165 58.6413 8.72298 58.876C9.32432 59.1107 9.98432 59.228 10.703 59.228C11.4657 59.228 12.1696 59.0813 12.815 58.788C13.4603 58.48 14.047 58.018 14.575 57.402L16.863 59.514C16.1296 60.4087 15.2203 61.0907 14.135 61.56C13.0643 62.0293 11.8543 62.264 10.505 62.264ZM29.2875 62.264C28.0702 62.264 26.9408 62.066 25.8995 61.67C24.8728 61.274 23.9782 60.7167 23.2155 59.998C22.4675 59.2793 21.8808 58.436 21.4555 57.468C21.0448 56.5 20.8395 55.444 20.8395 54.3C20.8395 53.156 21.0448 52.1 21.4555 51.132C21.8808 50.164 22.4748 49.3207 23.2375 48.602C24.0002 47.8833 24.8948 47.326 25.9215 46.93C26.9482 46.534 28.0628 46.336 29.2655 46.336C30.4828 46.336 31.5975 46.534 32.6095 46.93C33.6362 47.326 34.5235 47.8833 35.2715 48.602C36.0342 49.3207 36.6282 50.164 37.0535 51.132C37.4788 52.0853 37.6915 53.1413 37.6915 54.3C37.6915 55.444 37.4788 56.5073 37.0535 57.49C36.6282 58.458 36.0342 59.3013 35.2715 60.02C34.5235 60.724 33.6362 61.274 32.6095 61.67C31.5975 62.066 30.4902 62.264 29.2875 62.264ZM29.2655 59.228C29.9548 59.228 30.5855 59.1107 31.1575 58.876C31.7442 58.6413 32.2575 58.304 32.6975 57.864C33.1375 57.424 33.4748 56.9033 33.7095 56.302C33.9588 55.7007 34.0835 55.0333 34.0835 54.3C34.0835 53.5667 33.9588 52.8993 33.7095 52.298C33.4748 51.6967 33.1375 51.176 32.6975 50.736C32.2722 50.296 31.7662 49.9587 31.1795 49.724C30.5928 49.4893 29.9548 49.372 29.2655 49.372C28.5762 49.372 27.9382 49.4893 27.3515 49.724C26.7795 49.9587 26.2735 50.296 25.8335 50.736C25.3935 51.176 25.0488 51.6967 24.7995 52.298C24.5648 52.8993 24.4475 53.5667 24.4475 54.3C24.4475 55.0187 24.5648 55.686 24.7995 56.302C25.0488 56.9033 25.3862 57.424 25.8115 57.864C26.2515 58.304 26.7648 58.6413 27.3515 58.876C27.9382 59.1107 28.5762 59.228 29.2655 59.228ZM42.6124 57.182V54.432H48.8384V57.182H42.6124ZM57.9408 53.53H65.3328V56.39H57.9408V53.53ZM58.2048 62H54.6408V46.6H66.2788V49.46H58.2048V62ZM78.3935 62.264C76.2082 62.264 74.4995 61.6553 73.2675 60.438C72.0355 59.2207 71.4195 57.4827 71.4195 55.224V46.6H74.9835V55.092C74.9835 56.5587 75.2842 57.6147 75.8855 58.26C76.4869 58.9053 77.3302 59.228 78.4155 59.228C79.5009 59.228 80.3442 58.9053 80.9455 58.26C81.5469 57.6147 81.8475 56.5587 81.8475 55.092V46.6H85.3675V55.224C85.3675 57.4827 84.7515 59.2207 83.5195 60.438C82.2875 61.6553 80.5789 62.264 78.3935 62.264ZM91.7494 62V46.6H94.6974L103.783 57.688H102.353V46.6H105.873V62H102.947L93.8394 50.912H95.2694V62H91.7494Z" fill="#1E1E1E"/>
</svg>
